<svg width="138" height="65" viewBox="0 0 138 65" fill="none" xmlns="http://www.w3.org/2000/svg">
<path d="M19.5662 45.7275C18.529 44.7212 17.2997 43.9187 15.9424 43.3455C14.5722 42.7595 13.074 42.4665 11.4734 42.4665C9.87275 42.4665 8.45138 42.6831 7.11965 43.1162C6.04402 43.4601 5.03241 43.9951 4.13605 44.683V36.4287H0V53.5869C0 55.7141 0.396959 57.5356 1.17807 59.0005C1.95918 60.4527 2.93237 61.6373 4.08483 62.5162C5.2501 63.4206 6.51781 64.0703 7.83673 64.4397C9.14286 64.8091 10.3721 65.0001 11.4734 65.0001C13.0356 65.0001 14.521 64.7072 15.904 64.1467C17.2869 63.5862 18.5034 62.7837 19.515 61.7774C20.565 60.7711 21.3846 59.561 21.9736 58.1853C22.5626 56.8096 22.8571 55.2937 22.8571 53.676C22.8571 52.0583 22.5626 50.6444 21.9736 49.3069C21.3846 47.9694 20.5778 46.7593 19.5662 45.7147V45.7275ZM18.1705 56.593C17.7991 57.4847 17.2741 58.2617 16.6339 58.9114C15.9808 59.561 15.1997 60.0833 14.3289 60.4527C13.4582 60.8221 12.4978 61.0131 11.4862 61.0131C10.4746 61.0131 9.5014 60.8221 8.61785 60.4527C7.72149 60.0833 6.94038 59.561 6.28731 58.9114C5.60864 58.2617 5.07083 57.4847 4.69948 56.6058C4.32813 55.7141 4.13605 54.746 4.13605 53.7015C4.13605 52.7207 4.32813 51.7908 4.69948 50.9246C5.07083 50.0457 5.59584 49.2814 6.23609 48.6318C6.92757 47.9821 7.72149 47.4471 8.60504 47.065C9.47579 46.6828 10.449 46.4918 11.4862 46.4918C12.5234 46.4918 13.4582 46.6828 14.3289 47.065C15.2125 47.4471 15.9808 47.9821 16.6339 48.619C17.2869 49.3069 17.8119 50.0839 18.1833 50.9501C18.5546 51.8035 18.7467 52.7334 18.7467 53.7015C18.7467 54.746 18.5546 55.7141 18.1833 56.6058L18.1705 56.593Z" fill="#171719"/>
<path d="M30.0001 42.8574H26.4287V64.286H30.0001V42.8574Z" fill="#171719"/>
<path d="M28.5716 39.9996C29.1438 39.9996 29.6552 39.7926 30.0691 39.3786C30.4953 38.9647 30.7144 38.4533 30.7144 37.8567C30.7144 37.2601 30.4953 36.7731 30.0813 36.347C29.6552 35.9208 29.156 35.7139 28.5716 35.7139C27.9872 35.7139 27.4636 35.933 27.0497 36.3592C26.6357 36.7853 26.4287 37.2845 26.4287 37.8567C26.4287 38.429 26.6357 38.9647 27.0497 39.3786C27.4636 39.7926 27.975 39.9996 28.5716 39.9996Z" fill="#171719"/>
<path d="M53.1647 45.4775C52.1593 44.4642 50.9677 43.6561 49.6273 43.0533C48.2868 42.4504 46.8346 42.1426 45.3203 42.1426C43.8061 42.1426 42.3166 42.4504 40.9637 43.0533C39.6233 43.6561 38.4441 44.4899 37.476 45.5288C36.4582 46.5421 35.6639 47.7607 35.1177 49.1459C34.5592 50.5312 34.2861 52.0063 34.2861 53.5455C34.2861 55.1745 34.5716 56.7137 35.1426 58.1118C35.7135 59.5099 36.4955 60.7413 37.476 61.7546C38.4814 62.7679 39.6729 63.5631 40.9886 64.1403C42.3166 64.7175 43.7688 64.9997 45.3079 64.9997C46.847 64.9997 48.2619 64.7047 49.6024 64.1403C50.9429 63.576 52.1345 62.7679 53.1522 61.7546C54.1328 60.7413 54.9271 59.5356 55.5229 58.1503C56.1187 56.765 56.429 55.213 56.429 53.5583C56.429 51.9935 56.1311 50.5056 55.5477 49.1331C54.9644 47.7607 54.1576 46.5421 53.1398 45.5032L53.1647 45.4775ZM51.849 56.4572C51.4766 57.355 50.9677 58.1374 50.3223 58.7916C49.6893 59.4458 48.9322 59.9717 48.0882 60.3436C47.2442 60.7156 46.3133 60.908 45.3327 60.908C44.3522 60.908 43.3717 60.7156 42.5028 60.3436C41.6464 59.9717 40.9017 59.4586 40.2935 58.8044C39.6605 58.1503 39.164 57.3678 38.7917 56.47C38.4317 55.5849 38.2455 54.5973 38.2455 53.5455C38.2455 52.5578 38.4317 51.6215 38.7917 50.7493C39.1516 49.8771 39.6605 49.0946 40.2935 48.4405C40.9265 47.7863 41.6836 47.2604 42.5401 46.8628C43.3841 46.478 44.3274 46.2856 45.3327 46.2856C46.3381 46.2856 47.2318 46.478 48.0882 46.8628C48.9446 47.2476 49.7017 47.7735 50.3347 48.3892C50.9677 49.0433 51.4766 49.8258 51.8614 50.7108C52.2338 51.583 52.4199 52.545 52.4199 53.5583C52.4199 54.5716 52.2338 55.5849 51.8614 56.47L51.849 56.4572Z" fill="#171719"/>
<path d="M73.7776 59.9925C72.7102 60.6248 71.4584 60.941 70.0485 60.941C69.0339 60.941 68.0719 60.7639 67.1891 60.4098C66.3062 60.0558 65.5419 59.5626 64.8831 58.905C64.2111 58.298 63.6972 57.5519 63.3282 56.7046C62.9592 55.8573 62.7748 54.9215 62.7748 53.9099C62.7748 52.8982 62.9592 52.0257 63.3282 51.191C63.6972 50.3564 64.2111 49.5977 64.8436 48.9654C65.4892 48.3457 66.2535 47.8525 67.1495 47.4858C68.0324 47.1191 69.0075 46.9294 70.0485 46.9294C71.2608 46.9294 72.3808 47.2076 73.3691 47.7387C74.3574 48.2825 75.3061 49.0539 76.1626 50.015L79.2065 47.2202C78.2446 45.9936 77.0455 44.9819 75.6355 44.2232C73.9752 43.3253 72.1305 42.8574 70.1407 42.8574C68.4672 42.8574 66.9123 43.1609 65.4892 43.7553C64.0793 44.3496 62.8538 45.159 61.8524 46.1453C60.8114 47.1444 59.9944 48.3204 59.4278 49.6356C58.8612 50.9508 58.5713 52.3544 58.5713 53.8087C58.5713 55.4147 58.8744 56.9196 59.4542 58.2853C60.0339 59.6511 60.8509 60.8524 61.8655 61.8515C62.9065 62.8505 64.1452 63.6345 65.5551 64.1783C66.9651 64.7221 68.5068 65.0003 70.1407 65.0003C72.394 65.0003 74.3442 64.4818 75.965 63.4575C77.3749 62.5723 78.4818 61.548 79.2856 60.4225L75.7673 58.2221C75.3061 58.8797 74.6341 59.4614 73.7644 59.9799L73.7776 59.9925Z" fill="#171719"/>
<path d="M99.5934 45.4775C98.588 44.4642 97.3965 43.6561 96.056 43.0533C94.7155 42.4504 93.2633 42.1426 91.749 42.1426C90.2348 42.1426 88.7453 42.4504 87.3924 43.0533C86.052 43.6561 84.8728 44.4899 83.9047 45.5288C82.8869 46.5421 82.0926 47.7607 81.5464 49.1459C80.9879 50.5312 80.7148 52.0063 80.7148 53.5455C80.7148 55.1745 81.0003 56.7137 81.5713 58.1118C82.1422 59.5099 82.9242 60.7413 83.9047 61.7546C84.9101 62.7679 86.1016 63.5631 87.4173 64.1403C88.7454 64.7175 90.1975 64.9997 91.7366 64.9997C93.2757 64.9997 94.6907 64.7047 96.0311 64.1403C97.3716 63.576 98.5632 62.7679 99.5809 61.7546C100.561 60.7413 101.356 59.5356 101.952 58.1503C102.547 56.765 102.858 55.213 102.858 53.5583C102.858 51.9935 102.56 50.5056 101.976 49.1331C101.393 47.7607 100.586 46.5421 99.5685 45.5032L99.5934 45.4775ZM98.2653 56.4572C97.8929 57.355 97.384 58.1374 96.751 58.7916C96.118 59.4458 95.3609 59.9717 94.5169 60.3436C93.6729 60.7156 92.742 60.908 91.7614 60.908C90.7809 60.908 89.8004 60.7156 88.9315 60.3436C88.0627 59.9717 87.3304 59.4586 86.7222 58.8044C86.0892 58.1503 85.5803 57.3678 85.2204 56.47C84.8604 55.5849 84.6742 54.5973 84.6742 53.5455C84.6742 52.5578 84.8604 51.6215 85.2204 50.7493C85.5803 49.8771 86.0892 49.0946 86.7222 48.4405C87.3552 47.7863 88.1123 47.2604 88.9688 46.8628C89.8128 46.478 90.7561 46.2856 91.7614 46.2856C92.7668 46.2856 93.6605 46.478 94.5169 46.8628C95.3733 47.2476 96.1304 47.7735 96.7634 48.3892C97.3965 49.0433 97.9053 49.8258 98.2901 50.7108C98.6625 51.583 98.8486 52.545 98.8486 53.5583C98.8486 54.5716 98.6625 55.5849 98.2901 56.47L98.2653 56.4572Z" fill="#171719"/>
<path d="M137.131 52.0534C137.131 48.8882 136.279 46.4234 134.601 44.7111C132.923 43.0117 130.742 42.1426 128.134 42.1426C126.495 42.1426 125.114 42.5317 124.017 43.2971C123.088 43.9457 122.236 44.776 121.5 45.7878C120.726 44.8019 119.809 43.9717 118.777 43.3101C117.576 42.5317 116.144 42.1426 114.556 42.1426C113.485 42.1426 112.414 42.3631 111.355 42.7912C110.297 43.2322 109.329 43.8679 108.503 44.6981C107.677 45.5283 106.993 46.5791 106.489 47.7985C105.973 49.0179 105.715 50.4448 105.715 52.0274V64.9997H109.832V52.0274C109.832 50.4319 110.245 49.0568 111.058 47.9282C111.859 46.8385 113.02 46.3067 114.608 46.3067C116.195 46.3067 117.305 46.8775 118.106 48.045C118.932 49.2514 119.345 50.6394 119.345 52.1701V64.9868H123.501V52.1701C123.501 50.6005 123.927 49.2125 124.766 48.019C125.579 46.8645 126.702 46.3067 128.199 46.3067C129.786 46.3067 130.948 46.8385 131.722 47.9282C132.523 49.0438 132.936 50.4319 132.936 52.0274V64.9997H137.143V52.0274L137.131 52.0534Z" fill="#171719"/>
<path d="M95.7801 11.827C95.322 11.341 84.3649 0 77.5183 0C74.1205 0 70.9517 1.28365 68.572 3.58923C66.1922 1.29611 62.998 0 59.6256 0C52.7791 0 41.822 11.341 41.3639 11.827L40.7148 12.5L41.3639 13.173C41.822 13.659 52.7791 25 59.6256 25C63.0235 25 66.1922 23.7164 68.572 21.4108C70.9517 23.7039 74.146 25 77.5183 25C84.3649 25 95.322 13.659 95.7801 13.173L96.4291 12.5L95.7801 11.827ZM77.5056 23.0184C74.6296 23.0184 71.9062 21.8968 69.8955 19.9153L75.8258 11.8644V17.2109C75.8258 17.7592 76.2839 18.2079 76.8439 18.2079C77.4038 18.2079 77.8619 17.7592 77.8619 17.2109V9.7333C78.3455 9.39681 78.9182 9.11017 79.5545 8.98554C79.8472 8.92323 80.1526 8.8983 80.458 8.91077V15.1171C80.458 15.6655 80.9162 16.1142 81.4761 16.1142C82.0361 16.1142 82.4942 15.6655 82.4942 15.1171V9.50897C82.6724 9.60867 82.8505 9.70837 83.016 9.82054C83.805 10.344 84.5176 10.8674 85.1539 11.3784C85.5866 11.7273 86.2229 11.665 86.5792 11.2413C86.9356 10.8175 86.8719 10.1944 86.452 9.84546C85.7775 9.29711 85.0012 8.73629 84.1613 8.17547C82.5069 7.0663 80.8271 6.67996 79.1473 7.02891C76.3603 7.60219 74.655 10.0573 74.4259 10.3814L68.2029 18.831C68.0757 19.0055 67.9357 19.1675 67.7957 19.3295C65.7468 21.66 62.8198 22.9935 59.6511 22.9935C55.0188 22.9935 47.0015 15.9397 43.5273 12.4751C47.0015 9.01047 55.0188 1.95663 59.6511 1.95663C62.5272 1.95663 65.2505 3.07827 67.2612 5.05982L61.3309 13.1107V7.76421C61.3309 7.21585 60.8728 6.7672 60.3128 6.7672C59.7529 6.7672 59.2948 7.21585 59.2948 7.76421V15.2418C58.8112 15.5783 58.2385 15.8649 57.6022 15.9895C57.3095 16.0518 57.0041 16.0768 56.7114 16.0643V9.85793C56.7114 9.30957 56.2533 8.86092 55.6933 8.86092C55.1334 8.86092 54.6752 9.30957 54.6752 9.85793V15.4661C54.4971 15.3664 54.3189 15.2667 54.1535 15.1545C53.3645 14.6311 52.6518 14.1077 52.0155 13.5967C51.5828 13.2478 50.9465 13.3101 50.5902 13.7213C50.2339 14.1451 50.2975 14.7682 50.7175 15.1171C51.3919 15.6655 52.1682 16.2263 52.9954 16.7871C54.6498 17.8963 56.3296 18.2827 58.0094 17.9337C60.7964 17.3604 62.5144 14.9053 62.7308 14.5813L68.9538 6.13161C71.0027 3.48953 74.1205 1.96909 77.5183 1.96909C82.1506 1.96909 90.168 9.02293 93.6422 12.4875C90.168 15.9521 82.1506 23.006 77.5183 23.006L77.5056 23.0184Z" fill="#171719"/>
</svg>
