<svg width="114" height="18" viewBox="0 0 114 18" fill="none" xmlns="http://www.w3.org/2000/svg">
<path d="M51.0795 5.34967C50.5295 4.81967 49.8895 4.38972 49.1695 4.08972C48.4495 3.77972 47.6595 3.61969 46.8195 3.61969C45.9795 3.61969 45.2295 3.73973 44.5195 3.96973C43.9495 4.14973 43.4195 4.42968 42.9395 4.79968V0.429688H40.7695V9.51971C40.7695 10.6497 40.9795 11.6097 41.3895 12.3897C41.7995 13.1597 42.3195 13.7897 42.9195 14.2497C43.5395 14.7297 44.1995 15.0697 44.8995 15.2697C45.5895 15.4697 46.2295 15.5697 46.8195 15.5697C47.6395 15.5697 48.4295 15.4197 49.1595 15.1197C49.8895 14.8197 50.5295 14.3997 51.0595 13.8697C51.6095 13.3397 52.0495 12.6997 52.3495 11.9697C52.6595 11.2397 52.8195 10.4397 52.8195 9.57971C52.8195 8.71971 52.6595 7.9797 52.3495 7.2597C52.0395 6.5497 51.6195 5.90968 51.0795 5.35968V5.34967ZM50.3395 11.0997C50.1395 11.5697 49.8695 11.9797 49.5295 12.3297C49.1895 12.6697 48.7795 12.9497 48.3095 13.1397C47.8495 13.3397 47.3495 13.4397 46.8095 13.4397C46.2695 13.4397 45.7695 13.3397 45.2995 13.1397C44.8295 12.9397 44.4195 12.6697 44.0695 12.3197C43.7095 11.9797 43.4295 11.5697 43.2395 11.0997C43.0395 10.6297 42.9495 10.1097 42.9495 9.55969C42.9495 9.03969 43.0495 8.54972 43.2395 8.08972C43.4395 7.62972 43.7095 7.2197 44.0495 6.8797C44.4095 6.5297 44.8295 6.24968 45.2995 6.04968C45.7595 5.84968 46.2695 5.73969 46.8195 5.73969C47.3695 5.73969 47.8595 5.83968 48.3195 6.04968C48.7795 6.24968 49.1895 6.52969 49.5295 6.86969C49.8795 7.22969 50.1495 7.64967 50.3495 8.09967C50.5495 8.54967 50.6395 9.03969 50.6395 9.55969C50.6395 10.1097 50.5395 10.6297 50.3395 11.0997Z" fill="#22C3BC"/>
<path d="M56.8692 3.75977H54.6992V15.3298H56.8692V3.75977Z" fill="#22C3BC"/>
<path d="M55.7591 2.37C56.0791 2.37 56.3591 2.26003 56.5891 2.03003C56.8291 1.80003 56.9491 1.51999 56.9491 1.17999C56.9491 0.839993 56.8291 0.579976 56.5991 0.349976C56.3591 0.119976 56.0791 0 55.7691 0C55.4591 0 55.1491 0.119985 54.9191 0.359985C54.6891 0.589985 54.5791 0.870002 54.5791 1.19C54.5791 1.51 54.6991 1.81003 54.9191 2.03003C55.1491 2.26003 55.4291 2.37 55.7591 2.37Z" fill="#22C3BC"/>
<path d="M68.97 5.30005C68.42 4.77005 67.78 4.34008 67.05 4.02008C66.32 3.70008 65.53 3.54004 64.71 3.54004C63.89 3.54004 63.07 3.70008 62.34 4.02008C61.61 4.34008 60.97 4.78007 60.44 5.32007C59.89 5.85007 59.46 6.49009 59.16 7.22009C58.86 7.95009 58.71 8.73009 58.71 9.53009C58.71 10.3901 58.87 11.1901 59.18 11.9301C59.49 12.6701 59.91 13.31 60.45 13.85C61 14.38 61.64 14.8 62.36 15.1C63.08 15.4 63.87 15.55 64.71 15.55C65.55 15.55 66.32 15.4 67.05 15.1C67.78 14.8 68.4199 14.3801 68.9799 13.8401C69.5099 13.3101 69.95 12.6701 70.27 11.9401C70.6 11.2101 70.7599 10.4001 70.7599 9.52008C70.7599 8.70008 70.6 7.91006 70.28 7.19006C69.96 6.47006 69.53 5.83009 68.97 5.28009V5.30005ZM68.25 11.0801C68.05 11.5501 67.77 11.9601 67.42 12.3101C67.08 12.6501 66.67 12.9301 66.2 13.1201C65.74 13.3201 65.23 13.41 64.7 13.41C64.17 13.41 63.63 13.31 63.16 13.11C62.69 12.92 62.29 12.64 61.96 12.3C61.62 11.95 61.34 11.5401 61.15 11.0701C60.95 10.6001 60.85 10.0801 60.85 9.53009C60.85 9.01009 60.95 8.52006 61.14 8.06006C61.34 7.60006 61.61 7.19009 61.95 6.84009C62.3 6.49009 62.7 6.22007 63.17 6.01007C63.63 5.81007 64.14 5.70007 64.69 5.70007C65.24 5.70007 65.72 5.80007 66.19 6.01007C66.66 6.21007 67.07 6.49006 67.41 6.81006C67.75 7.16006 68.03 7.56009 68.24 8.03009C68.44 8.49009 68.55 8.99009 68.55 9.53009C68.55 10.0701 68.45 10.5901 68.24 11.0601L68.25 11.0801Z" fill="#22C3BC"/>
<path d="M79.6999 12.8597C79.1599 13.1897 78.5099 13.3597 77.7899 13.3597C77.2699 13.3597 76.7799 13.2597 76.3299 13.0797C75.8799 12.8897 75.4799 12.6197 75.1499 12.2797C74.8099 11.9497 74.5399 11.5597 74.3499 11.1097C74.1599 10.6597 74.0699 10.1597 74.0699 9.61969C74.0699 9.07969 74.1599 8.60968 74.3499 8.16968C74.5399 7.71968 74.7999 7.31968 75.1299 6.97968C75.4599 6.64968 75.8499 6.3897 76.3099 6.1897C76.7599 5.9897 77.2599 5.89972 77.7899 5.89972C78.4099 5.89972 78.9899 6.04971 79.4899 6.32971C79.9999 6.61971 80.4799 7.02967 80.9199 7.53967L82.4799 6.04968C81.9899 5.38968 81.3699 4.85971 80.6499 4.44971C79.7999 3.96971 78.8499 3.71973 77.8399 3.71973C76.9799 3.71973 76.1799 3.87971 75.4599 4.19971C74.7399 4.51971 74.1099 4.94968 73.5999 5.47968C73.0699 6.00968 72.6499 6.63972 72.3599 7.33972C72.0699 8.03972 71.9199 8.7897 71.9199 9.5697C71.9199 10.4297 72.0699 11.2297 72.3699 11.9597C72.6699 12.6897 73.0799 13.3297 73.5999 13.8597C74.1299 14.3897 74.7699 14.8097 75.4899 15.0997C76.2099 15.3897 76.9999 15.5397 77.8399 15.5397C78.9899 15.5397 79.9899 15.2597 80.8199 14.7197C81.5399 14.2497 82.1099 13.6997 82.5199 13.0997L80.7199 11.9197C80.4799 12.2697 80.1399 12.5797 79.6999 12.8597Z" fill="#22C3BC"/>
<path d="M93.7395 5.30005C93.1895 4.77005 92.5495 4.34008 91.8195 4.02008C91.0895 3.70008 90.2995 3.54004 89.4795 3.54004C88.6595 3.54004 87.8495 3.70008 87.1095 4.02008C86.3795 4.34008 85.7395 4.78007 85.2095 5.32007C84.6595 5.85007 84.2295 6.49009 83.9295 7.22009C83.6295 7.95009 83.4795 8.73009 83.4795 9.53009C83.4795 10.3901 83.6395 11.1901 83.9495 11.9301C84.2595 12.6701 84.6895 13.31 85.2195 13.85C85.7695 14.38 86.4095 14.8 87.1295 15.1C87.8495 15.4 88.6395 15.55 89.4795 15.55C90.3195 15.55 91.0895 15.4 91.8195 15.1C92.5495 14.8 93.1895 14.3801 93.7495 13.8401C94.2795 13.3101 94.7195 12.6701 95.0395 11.9401C95.3695 11.2101 95.5295 10.4001 95.5295 9.52008C95.5295 8.70008 95.3695 7.91006 95.0495 7.19006C94.7295 6.47006 94.2895 5.83009 93.7395 5.28009V5.30005ZM93.0195 11.0801C92.8195 11.5501 92.5395 11.9601 92.1895 12.3101C91.8495 12.6501 91.4395 12.9301 90.9695 13.1201C90.5095 13.3201 89.9995 13.41 89.4695 13.41C88.9395 13.41 88.3995 13.31 87.9295 13.11C87.4595 12.92 87.0595 12.64 86.7295 12.3C86.3895 11.95 86.1095 11.5401 85.9195 11.0701C85.7195 10.6001 85.6295 10.0801 85.6295 9.53009C85.6295 9.01009 85.7295 8.52006 85.9195 8.06006C86.1195 7.60006 86.3895 7.19009 86.7295 6.84009C87.0695 6.49009 87.4795 6.22007 87.9495 6.01007C88.4095 5.81007 88.9195 5.70007 89.4695 5.70007C90.0195 5.70007 90.4995 5.80007 90.9695 6.01007C91.4395 6.21007 91.8495 6.49006 92.1895 6.81006C92.5295 7.16006 92.8095 7.56009 93.0195 8.03009C93.2195 8.49009 93.3195 8.99009 93.3195 9.53009C93.3195 10.0701 93.2195 10.5901 93.0095 11.0601L93.0195 11.0801Z" fill="#22C3BC"/>
<path d="M113.39 8.67023C113.39 7.02023 112.95 5.74023 112.07 4.86023C111.19 3.98023 110.06 3.53027 108.69 3.53027C107.83 3.53027 107.11 3.73025 106.54 4.13025C106.05 4.47025 105.61 4.90024 105.22 5.43024C104.81 4.92024 104.33 4.48026 103.8 4.14026C103.17 3.74026 102.43 3.53027 101.59 3.53027C101.03 3.53027 100.47 3.64024 99.91 3.87024C99.35 4.10024 98.85 4.43023 98.42 4.86023C97.99 5.29023 97.63 5.84028 97.36 6.47028C97.09 7.11028 96.96 7.85023 96.96 8.67023V15.4102H99.11V8.67023C99.11 7.84023 99.3299 7.12022 99.7499 6.54022C100.17 5.97022 100.78 5.69025 101.61 5.69025C102.44 5.69025 103.02 5.99027 103.44 6.59027C103.87 7.22027 104.09 7.94023 104.09 8.74023V15.4102H106.26V8.74023C106.26 7.93023 106.48 7.20026 106.92 6.58026C107.35 5.98026 107.93 5.69025 108.71 5.69025C109.54 5.69025 110.14 5.97027 110.55 6.53027C110.97 7.11027 111.18 7.83022 111.18 8.66022V15.4003H113.38V8.66022L113.39 8.67023Z" fill="#22C3BC"/>
<path d="M37.03 8.28992C36.72 7.95992 29.35 0.169922 24.75 0.169922C22.47 0.169922 20.34 1.04988 18.74 2.62988C17.14 1.05988 14.99 0.169922 12.72 0.169922C8.11 0.169922 0.750002 7.95992 0.440002 8.28992L0 8.75989L0.440002 9.22992C0.750002 9.55992 8.12 17.3499 12.72 17.3499C15 17.3499 17.13 16.4699 18.73 14.8899C20.33 16.4599 22.48 17.3499 24.75 17.3499C29.36 17.3499 36.72 9.55992 37.03 9.22992L37.47 8.75989L37.03 8.28992ZM24.74 15.9799C22.81 15.9799 20.97 15.2099 19.62 13.8499L23.61 8.3299V11.9999C23.61 12.3799 23.91 12.6799 24.29 12.6799C24.67 12.6799 24.97 12.3699 24.97 11.9999V6.86987C25.29 6.63987 25.68 6.44986 26.1 6.35986C26.3 6.31986 26.5 6.29988 26.7 6.30988V10.5699C26.7 10.9499 27.01 11.2499 27.38 11.2499C27.75 11.2499 28.06 10.9499 28.06 10.5699V6.71991C28.18 6.78991 28.3 6.85988 28.41 6.93988C28.94 7.29988 29.42 7.65989 29.84 8.00989C30.13 8.24989 30.56 8.20992 30.8 7.91992C31.04 7.62992 31 7.1999 30.71 6.9599C30.25 6.5799 29.74 6.19988 29.17 5.80988C28.06 5.04988 26.93 4.7899 25.8 5.0199C23.92 5.4099 22.78 7.09989 22.63 7.31989L18.44 13.1199C18.35 13.2399 18.26 13.3499 18.16 13.4599C16.78 15.0599 14.81 15.9699 12.68 15.9699C9.55999 15.9699 4.17 11.1299 1.84 8.74988C4.17 6.36988 9.55999 1.52991 12.68 1.52991C14.61 1.52991 16.45 2.29991 17.8 3.65991L13.81 9.17987V5.50989C13.81 5.12989 13.51 4.8299 13.13 4.8299C12.75 4.8299 12.45 5.13989 12.45 5.50989V10.6399C12.12 10.8699 11.74 11.0599 11.32 11.1499C11.12 11.1899 10.92 11.2099 10.72 11.1999V6.93988C10.72 6.55988 10.41 6.25989 10.04 6.25989C9.67001 6.25989 9.35999 6.55988 9.35999 6.93988V10.7899C9.23999 10.7199 9.11998 10.6499 9.00998 10.5699C8.47998 10.2099 7.99999 9.84988 7.57999 9.49988C7.28999 9.25988 6.85999 9.2999 6.62 9.5899C6.38 9.8799 6.41999 10.3099 6.70999 10.5499C7.16999 10.9299 7.68 11.3099 8.25 11.6999C9.36 12.4599 10.5 12.7199 11.62 12.4899C13.5 12.0999 14.65 10.4099 14.79 10.1899L18.98 4.38989C20.36 2.56989 22.46 1.52991 24.74 1.52991C27.86 1.52991 33.25 6.36988 35.58 8.74988C33.25 11.1299 27.86 15.9699 24.74 15.9699V15.9799Z" fill="#22C3BC"/>
</svg>
