<svg width="56" height="25" viewBox="0 0 56 25" fill="none" xmlns="http://www.w3.org/2000/svg">
<path d="M55.0653 11.827C54.6071 11.341 43.6501 0 36.8035 0C33.4057 0 30.2369 1.28365 27.8571 3.58923C25.4774 1.29611 22.2832 0 18.9108 0C12.0642 0 1.10716 11.341 0.649022 11.827L0 12.5L0.649022 13.173C1.10716 13.659 12.0642 25 18.9108 25C22.3086 25 25.4774 23.7164 27.8571 21.4108C30.2369 23.7039 33.4311 25 36.8035 25C43.6501 25 54.6071 13.659 55.0653 13.173L55.7143 12.5L55.0653 11.827ZM36.7908 23.0184C33.9147 23.0184 31.1914 21.8968 29.1807 19.9153L35.111 11.8644V17.2109C35.111 17.7592 35.5691 18.2079 36.129 18.2079C36.689 18.2079 37.1471 17.7592 37.1471 17.2109V9.7333C37.6307 9.39681 38.2034 9.11017 38.8397 8.98554C39.1324 8.92323 39.4378 8.8983 39.7432 8.91077V15.1171C39.7432 15.6655 40.2013 16.1142 40.7613 16.1142C41.3212 16.1142 41.7794 15.6655 41.7794 15.1171V9.50897C41.9575 9.60867 42.1357 9.70837 42.3011 9.82054C43.0901 10.344 43.8028 10.8674 44.4391 11.3784C44.8718 11.7273 45.5081 11.665 45.8644 11.2413C46.2207 10.8175 46.1571 10.1944 45.7371 9.84546C45.0627 9.29711 44.2864 8.73629 43.4465 8.17547C41.7921 7.0663 40.1123 6.67996 38.4324 7.02891C35.6454 7.60219 33.9402 10.0573 33.7111 10.3814L27.4881 18.831C27.3608 19.0055 27.2208 19.1675 27.0809 19.3295C25.032 21.66 22.105 22.9935 18.9362 22.9935C14.304 22.9935 6.28663 15.9397 2.81244 12.4751C6.28663 9.01047 14.304 1.95663 18.9362 1.95663C21.8123 1.95663 24.5357 3.07827 26.5464 5.05982L20.6161 13.1107V7.76421C20.6161 7.21585 20.1579 6.7672 19.598 6.7672C19.038 6.7672 18.5799 7.21585 18.5799 7.76421V15.2418C18.0963 15.5783 17.5237 15.8649 16.8874 15.9895C16.5947 16.0518 16.2892 16.0768 15.9965 16.0643V9.85793C15.9965 9.30957 15.5384 8.86092 14.9785 8.86092C14.4185 8.86092 13.9604 9.30957 13.9604 9.85793V15.4661C13.7822 15.3664 13.6041 15.2667 13.4386 15.1545C12.6496 14.6311 11.937 14.1077 11.3007 13.5967C10.868 13.2478 10.2317 13.3101 9.87535 13.7213C9.51902 14.1451 9.58265 14.7682 10.0026 15.1171C10.6771 15.6655 11.4534 16.2263 12.2806 16.7871C13.9349 17.8963 15.6148 18.2827 17.2946 17.9337C20.0816 17.3604 21.7996 14.9053 22.0159 14.5813L28.2389 6.13161C30.2878 3.48953 33.4057 1.96909 36.8035 1.96909C41.4358 1.96909 49.4531 9.02293 52.9273 12.4875C49.4531 15.9521 41.4358 23.006 36.8035 23.006L36.7908 23.0184Z" fill="#22C3BC"/>
</svg>
